<svg width="50" height="50" viewBox="0 0 50 50" fill="none" xmlns="http://www.w3.org/2000/svg">
<path d="M3.75278 29.5C2.14508 26.7154 2.14508 23.2846 3.75278 20.5L10.4793 8.84937C12.087 6.06476 15.0581 4.34937 18.2735 4.34937L31.7265 4.34937C34.9419 4.34937 37.913 6.06476 39.5207 8.84937L46.2472 20.5C47.8549 23.2846 47.8549 26.7154 46.2472 29.5L39.5207 41.1506C37.913 43.9352 34.9419 45.6506 31.7265 45.6506L18.2735 45.6506C15.0581 45.6506 12.087 43.9352 10.4793 41.1506L3.75278 29.5Z" fill="url(#paint0_radial_96_496)" fill-opacity="0.45" stroke="#B9DC1E" stroke-width="2"/>
<g filter="url(#filter0_dd_96_496)">
<path d="M34.0504 18.0249C33.9516 18.0449 33.9628 18.0349 33.8999 18.1744C33.873 18.2367 33.8034 18.3464 33.7495 18.4162L33.6484 18.5482H32.8241C32.3681 18.5482 31.9212 18.5408 31.8268 18.5333C31.6764 18.5183 31.6561 18.5109 31.6337 18.456C31.5865 18.3414 31.4765 18.314 31.0924 18.314C30.7757 18.314 30.733 18.319 30.632 18.3713C30.5376 18.4187 30.4613 18.4311 30.1693 18.4511C29.9784 18.461 29.7897 18.4834 29.7538 18.4984C29.6909 18.5258 27.2202 18.5657 24.671 18.5806L23.6288 18.5856L23.5659 18.7551C23.5322 18.8498 23.4873 18.947 23.4693 18.9694C23.4132 19.0367 23.0336 19.0541 21.9892 19.0317L21.0953 19.0142L21.0279 18.8697C20.9043 18.5981 20.8257 18.5732 20.0014 18.5532L19.3636 18.5358L19.3007 18.4585C19.267 18.4137 19.2288 18.3613 19.2176 18.3364C19.1973 18.299 19.1389 18.2965 18.5033 18.3165L17.8115 18.3364L17.7554 18.5009L17.7015 18.6654L17.3848 18.6803C17.2096 18.6903 16.9378 18.6978 16.7806 18.6978H16.4931V18.8149C16.4931 18.8822 16.4751 18.9719 16.4527 19.0192C16.4033 19.1314 16.2191 19.2709 16.1225 19.2709C16.0506 19.2709 15.9316 19.1986 15.8193 19.084C15.6441 18.9121 15.3791 18.7675 15.2353 18.7675C15.1477 18.77 14.8872 18.8822 14.7502 18.9769C14.5211 19.1388 14.4245 19.3606 14.4694 19.6298C14.5188 19.9313 14.6019 19.9961 14.9883 20.0434C15.3027 20.0808 15.4599 20.1331 15.6127 20.2428C15.7879 20.3699 16.0147 20.6166 16.0349 20.7063C16.0731 20.8758 15.9473 21.3168 15.7744 21.6234C15.534 22.047 15.2308 22.1816 14.6873 22.1143C14.566 22.0993 14.4582 22.0918 14.4515 22.0993C14.4447 22.1093 14.438 22.2115 14.438 22.3311C14.438 22.5853 14.4739 22.6924 14.6222 22.8494C14.7637 23.0039 14.8804 23.0538 15.2061 23.0961C16.0169 23.2058 16.2146 23.2556 16.3471 23.3852C16.4033 23.4425 16.4257 23.4824 16.4257 23.5372C16.4257 23.6319 16.3449 23.8985 16.1135 24.5764C15.9473 25.0573 15.7339 25.6604 14.5166 29.0644C14.1415 30.1086 14 30.5397 14 30.6219C14 30.6444 14.018 30.6967 14.0382 30.7366C14.0831 30.8213 14.1617 30.8537 14.8423 31.058C16.154 31.4518 18.0698 31.9551 18.3865 31.9875L18.4966 32L18.5348 31.8953C18.656 31.5838 18.8851 30.8936 18.9233 30.7241C18.9885 30.4425 18.9593 30.3578 18.7436 30.1983C18.7414 30.1958 18.9211 29.5728 19.1434 28.8127C19.9655 26.0192 20.116 25.5507 20.2013 25.4984C20.271 25.4585 20.6887 25.4311 21.4681 25.4137C22.7506 25.3863 22.8831 25.3663 23.1594 25.162C23.4648 24.9377 23.649 24.6088 23.7276 24.1552C23.8107 23.6618 23.8624 23.5297 24.0263 23.3852C24.242 23.1958 24.4486 23.1609 25.5357 23.141L26.3892 23.126L26.4139 22.9665C26.4453 22.7672 26.5262 22.5778 26.6475 22.4258L26.7396 22.3111L30.2232 22.3087C33.6574 22.3062 35.5822 22.2862 35.6564 22.2513C35.6766 22.2414 35.699 22.214 35.708 22.1915C35.717 22.1691 35.7305 21.895 35.7395 21.5835C35.7552 21.0153 35.7664 20.9405 35.845 20.9405C35.8607 20.9405 35.9034 20.9131 35.9371 20.8807L36 20.8209V20.026C36 19.1388 35.9978 19.1289 35.8428 19.0566C35.7597 19.0192 35.7462 18.9794 35.735 18.7252C35.7327 18.6355 35.7192 18.5856 35.6968 18.5732C35.6788 18.5632 35.6069 18.5283 35.5396 18.4959C35.4744 18.4635 35.2835 18.3389 35.1173 18.2168L34.8186 18L34.4772 18.0025C34.2885 18.005 34.0976 18.015 34.0504 18.0249ZM21.4816 23.4948C21.4771 23.8587 21.5153 24.1901 21.5826 24.3795C21.6186 24.4767 21.659 24.5116 21.659 24.4468C21.6792 23.8088 21.7017 23.6145 21.7736 23.3952L21.8499 23.1709L22.3014 23.1634L22.7528 23.1584L22.9078 23.3403C23.1234 23.5895 23.1728 23.7116 23.1728 23.9808C23.1706 24.2549 23.1144 24.4244 22.9685 24.5888C22.7214 24.8604 22.4968 24.9128 21.65 24.8953C21.075 24.8854 21.0211 24.8754 20.7898 24.7433C20.6303 24.6561 20.554 24.5764 20.4798 24.4243C20.4169 24.2998 20.4125 24.2773 20.4125 24.0057C20.4125 23.7665 20.4214 23.6992 20.4596 23.6045C20.5966 23.2755 20.8617 23.1335 21.3086 23.141L21.4861 23.146L21.4816 23.4948Z" fill="white"/>
</g>
<defs>
<filter id="filter0_dd_96_496" x="0" y="4" width="50" height="42" filterUnits="userSpaceOnUse" color-interpolation-filters="sRGB">
<feFlood flood-opacity="0" result="BackgroundImageFix"/>
<feColorMatrix in="SourceAlpha" type="matrix" values="0 0 0 0 0 0 0 0 0 0 0 0 0 0 0 0 0 0 127 0" result="hardAlpha"/>
<feOffset/>
<feGaussianBlur stdDeviation="7"/>
<feColorMatrix type="matrix" values="0 0 0 0 1 0 0 0 0 1 0 0 0 0 1 0 0 0 0.45 0"/>
<feBlend mode="normal" in2="BackgroundImageFix" result="effect1_dropShadow_96_496"/>
<feColorMatrix in="SourceAlpha" type="matrix" values="0 0 0 0 0 0 0 0 0 0 0 0 0 0 0 0 0 0 127 0" result="hardAlpha"/>
<feOffset/>
<feGaussianBlur stdDeviation="2"/>
<feComposite in2="hardAlpha" operator="out"/>
<feColorMatrix type="matrix" values="0 0 0 0 0 0 0 0 0 0 0 0 0 0 0 0 0 0 0.1 0"/>
<feBlend mode="normal" in2="effect1_dropShadow_96_496" result="effect2_dropShadow_96_496"/>
<feBlend mode="normal" in="SourceGraphic" in2="effect2_dropShadow_96_496" result="shape"/>
</filter>
<radialGradient id="paint0_radial_96_496" cx="0" cy="0" r="1" gradientUnits="userSpaceOnUse" gradientTransform="translate(25 -0.0714213) rotate(90) scale(55.5179 566.531)">
<stop/>
<stop offset="1" stop-opacity="0"/>
</radialGradient>
</defs>
</svg>
